<?xml version="1.0" standalone="no"?>
<!DOCTYPE svg PUBLIC "-//W3C//DTD SVG 20010904//EN"
 "http://www.w3.org/TR/2001/REC-SVG-20010904/DTD/svg10.dtd">
<svg version="1.0" xmlns="http://www.w3.org/2000/svg"
 width="411.000000pt" height="428.000000pt" viewBox="0 0 411.000000 428.000000"
 preserveAspectRatio="xMidYMid meet">

<g transform="translate(0.000000,428.000000) scale(0.100000,-0.100000)"
fill="#000000" stroke="none">
<path d="M2128 3443 c18 -2 45 -2 60 0 15 2 0 4 -33 4 -33 0 -45 -2 -27 -4z"/>
<path d="M2003 3425 c-64 -19 -127 -60 -183 -117 -52 -52 -121 -175 -119 -212
0 -13 5 -5 13 19 19 60 55 125 83 151 60 55 58 13 -3 -72 -26 -36 -44 -67 -41
-70 3 -3 12 8 21 24 8 16 27 43 41 60 l25 30 39 -16 c36 -16 39 -19 35 -52
l-4 -35 10 35 c6 19 13 46 16 60 3 14 14 45 25 69 17 39 21 42 36 30 33 -24
73 -63 73 -69 0 -6 -51 -31 -90 -44 -10 -3 -9 -5 5 -5 11 -1 38 8 60 20 33 18
40 19 49 7 6 -8 31 -41 56 -73 66 -86 82 -115 76 -131 -3 -9 -39 -31 -80 -50
-64 -29 -85 -34 -150 -34 -54 0 -76 4 -76 13 0 8 -4 7 -10 -3 -18 -28 -10 -37
38 -38 57 -1 99 -16 130 -45 21 -20 23 -28 21 -139 0 -65 -4 -118 -6 -118 -10
0 -61 57 -88 98 -15 22 -37 67 -51 99 -13 32 -24 51 -24 43 0 -22 55 -135 85
-174 14 -18 25 -36 25 -39 0 -3 -21 -8 -47 -10 -45 -3 -44 -4 13 -5 70 -2 94
-20 94 -70 0 -30 -1 -31 -32 -25 -79 15 -175 61 -211 101 -18 20 -18 21 5 16
12 -3 5 3 -18 14 -37 18 -56 36 -92 88 -10 16 -11 15 -1 -6 47 -101 178 -193
322 -224 l27 -6 0 -180 0 -180 30 0 30 0 0 179 0 178 51 7 c28 4 75 16 105 27
29 11 58 18 63 15 5 -3 26 -33 47 -66 22 -33 42 -60 45 -60 4 0 72 102 150
226 l144 225 3 -365 2 -366 50 0 50 0 0 395 0 395 -70 0 -69 0 -116 -175 c-63
-96 -118 -175 -122 -175 -3 0 -11 8 -18 17 -11 15 -7 25 30 73 44 56 85 130
85 151 0 6 -16 -20 -35 -59 -38 -76 -74 -118 -61 -72 4 16 0 12 -14 -12 -11
-21 -24 -38 -29 -38 -5 0 -20 18 -35 40 l-26 40 62 59 c51 48 64 56 70 43 4
-11 7 -5 8 18 0 19 7 44 15 54 8 11 15 25 15 30 0 6 -6 2 -12 -9 -11 -19 -11
-19 -19 0 -6 15 -8 10 -8 -18 -1 -34 -9 -47 -66 -104 -74 -73 -86 -73 -106 1
-7 22 -14 35 -16 28 -3 -8 -23 12 -49 47 l-44 61 -68 0 -67 0 65 35 c35 19 68
35 73 35 4 0 26 -37 48 -82 22 -46 37 -72 33 -58 -3 14 -21 53 -39 88 l-33 63
43 44 c24 24 53 62 65 85 l22 43 29 -29 c15 -16 42 -54 58 -84 17 -30 31 -50
31 -45 0 18 -57 109 -84 134 -16 15 -26 36 -27 55 -1 17 -3 23 -6 14 -2 -10
-6 -18 -8 -18 -1 0 -29 17 -61 39 -33 21 -81 46 -109 56 -27 10 -55 24 -60 30
-8 10 -13 9 -23 -1 -8 -9 -9 -14 -2 -14 12 0 -13 -55 -30 -65 -10 -6 -87 52
-89 68 -1 4 20 8 47 8 45 2 45 2 12 8 -33 6 -34 7 -10 14 14 4 59 10 100 13
91 8 104 14 27 14 -58 0 -110 16 -101 31 7 12 -24 10 -73 -6z m80 -17 c20 -10
18 -12 -23 -24 -53 -16 -64 -9 -31 17 27 22 26 22 54 7z m-79 -20 c-10 -13
-20 -25 -21 -26 -4 -8 -43 10 -43 19 0 11 37 27 64 28 19 1 19 1 0 -21z m-54
-28 c13 -8 11 -11 -7 -16 -13 -4 -23 -11 -23 -17 0 -10 -21 -29 -52 -48 -14
-7 -18 -6 -18 6 0 8 15 22 33 30 17 8 22 12 10 9 -27 -6 -29 3 -6 28 18 20 40
23 63 8z m358 -97 c29 -18 55 -39 58 -47 11 -28 -86 -166 -117 -166 -5 0 -16
12 -26 28 -9 15 -43 62 -75 104 l-58 77 27 40 26 40 56 -21 c31 -12 80 -36
109 -55z m-348 65 c0 -2 -9 -25 -19 -53 -21 -55 -36 -64 -66 -40 -19 15 -19
16 25 55 38 34 60 48 60 38z m265 -525 c32 -48 59 -92 61 -98 3 -6 -13 -18
-36 -25 -22 -7 -38 -15 -35 -18 2 -2 22 3 44 12 l40 16 31 -45 c16 -24 30 -49
30 -55 0 -16 -63 -40 -105 -40 -19 0 -35 -4 -35 -10 0 -5 -13 -10 -30 -10 -20
0 -30 5 -30 15 0 11 7 14 28 10 l27 -5 -27 11 c-24 9 -28 16 -28 50 0 33 3 39
23 40 l22 2 -22 4 c-22 4 -23 8 -23 119 0 63 2 114 4 114 3 0 30 -39 61 -87z"/>
<path d="M2262 3427 c46 -13 103 -45 96 -53 -3 -2 -20 1 -39 6 -18 6 -45 10
-59 9 -14 0 3 -7 37 -14 74 -16 83 -21 83 -43 0 -15 2 -15 10 -2 6 10 5 17 -5
23 -29 16 -15 27 14 12 36 -18 54 -42 25 -32 -10 4 -5 -3 11 -15 48 -35 103
-96 125 -136 10 -20 19 -33 20 -29 1 23 -50 99 -102 153 -64 66 -160 122 -226
130 -34 4 -33 3 10 -9z"/>
<path d="M2584 3079 c0 -35 2 -55 5 -44 3 11 8 -16 12 -60 l5 -80 1 85 c1 47
-4 103 -10 124 l-12 39 -1 -64z"/>
<path d="M1903 3055 c0 -44 2 -61 4 -37 2 23 2 59 0 80 -2 20 -4 1 -4 -43z"/>
<path d="M1732 3085 c-7 -14 -12 -31 -12 -38 1 -7 7 3 16 22 17 39 13 54 -4
16z"/>
<path d="M1690 3048 c0 -16 5 -28 10 -28 6 0 10 -9 10 -21 0 -11 5 -17 10 -14
6 3 10 3 10 -2 0 -4 -35 -9 -77 -11 -109 -4 -150 -19 -204 -72 -49 -49 -69
-102 -69 -182 0 -78 6 -86 69 -98 31 -6 69 -15 85 -20 l28 -10 -35 40 c-109
120 -43 288 110 278 50 -3 51 -5 78 -81 9 -27 19 -47 21 -45 2 2 -3 22 -11 43
-26 72 -15 80 55 46 l40 -19 0 39 c0 37 1 39 33 40 25 0 20 4 -28 16 -70 18
-90 33 -115 88 -18 37 -19 38 -20 13z"/>
<path d="M2571 3003 c-1 -6 -4 -20 -7 -30 -5 -17 -5 -17 6 0 6 10 9 23 6 30
-3 9 -5 9 -5 0z"/>
<path d="M2511 2984 c0 -11 3 -14 6 -6 3 7 2 16 -1 19 -3 4 -6 -2 -5 -13z"/>
<path d="M690 2961 c0 -4 32 -13 71 -20 84 -14 109 -25 109 -50 0 -18 -106
-269 -119 -284 -5 -4 -61 -19 -127 -32 -223 -46 -328 -82 -149 -51 44 8 120
17 168 21 l88 7 -14 -33 c-8 -19 -45 -103 -81 -187 -36 -85 -66 -158 -66 -164
0 -5 15 -8 33 -6 32 3 33 5 112 190 44 103 85 193 92 199 8 8 44 9 127 4 l115
-7 37 -96 c119 -311 107 -286 142 -293 17 -3 43 -14 57 -23 14 -9 25 -13 25
-9 0 5 -34 97 -76 206 -42 108 -74 200 -71 203 3 3 58 -4 124 -16 494 -88 638
-295 330 -476 -61 -37 -7 -19 86 28 182 91 225 202 118 307 -54 54 -166 111
-288 146 -100 29 -289 65 -343 65 -20 0 -43 6 -52 13 -9 6 -47 92 -84 189
l-69 178 -147 0 c-82 0 -148 -4 -148 -9z m288 -224 c23 -62 42 -117 42 -123 0
-5 -42 -9 -95 -9 -52 0 -95 4 -95 9 0 15 94 236 100 236 3 0 24 -51 48 -113z"/>
<path d="M2930 2940 c0 -5 8 -10 18 -10 35 0 118 -30 140 -50 22 -21 22 -22
22 -365 l0 -345 229 0 229 0 6 23 c3 12 6 42 6 67 l-1 45 -23 -28 c-49 -60
-70 -67 -204 -67 -122 0 -123 0 -132 26 -15 39 -13 284 3 285 6 0 54 0 105 -1
l92 -1 0 30 0 30 -102 3 -103 3 0 147 c0 107 4 151 13 160 9 9 48 13 133 13
115 0 122 -1 140 -24 10 -13 19 -34 19 -47 0 -17 6 -24 20 -24 22 0 26 29 14
103 l-7 37 -308 0 c-199 0 -309 -4 -309 -10z"/>
<path d="M3652 2930 c-12 -12 -22 -26 -22 -32 0 -6 9 1 20 15 11 14 30 28 43
30 20 4 20 4 1 6 -11 0 -30 -8 -42 -19z"/>
<path d="M3721 2937 c2 -1 13 -9 24 -17 19 -14 19 -14 6 3 -7 9 -18 17 -24 17
-6 0 -8 -1 -6 -3z"/>
<path d="M3674 2880 c-1 -22 2 -40 7 -40 5 0 9 18 9 40 0 22 -3 40 -8 40 -4 0
-8 -18 -8 -40z"/>
<path d="M3714 2912 c4 -7 3 -19 -3 -26 -8 -9 -7 -18 3 -31 12 -16 13 -14 12
18 -1 20 -6 40 -10 44 -5 4 -6 2 -2 -5z"/>
<path d="M1921 2894 c0 -11 3 -14 6 -6 3 7 2 16 -1 19 -3 4 -6 -2 -5 -13z"/>
<path d="M3762 2880 c0 -14 2 -19 5 -12 2 6 2 18 0 25 -3 6 -5 1 -5 -13z"/>
<path d="M2591 2874 c0 -11 3 -14 6 -6 3 7 2 16 -1 19 -3 4 -6 -2 -5 -13z"/>
<path d="M3739 2833 c-13 -16 -12 -17 4 -4 16 13 21 21 13 21 -2 0 -10 -8 -17
-17z"/>
<path d="M3654 2826 c11 -9 31 -16 45 -15 24 1 24 2 -5 8 -17 4 -37 11 -45 15
-8 4 -5 0 5 -8z"/>
<path d="M2511 2784 c0 -11 3 -14 6 -6 3 7 2 16 -1 19 -3 4 -6 -2 -5 -13z"/>
<path d="M1903 2643 c9 -2 23 -2 30 0 6 3 -1 5 -18 5 -16 0 -22 -2 -12 -5z"/>
<path d="M504 1845 c-4 -8 1 -26 9 -39 12 -17 13 -26 4 -35 -8 -8 -8 -11 1
-11 21 0 26 30 8 49 -21 23 -20 30 7 41 l22 9 -23 0 c-12 1 -25 -6 -28 -14z"/>
<path d="M652 1821 c-17 -54 -15 -61 11 -60 18 1 18 2 4 6 -11 3 -16 10 -13
20 3 8 6 17 6 19 0 2 10 5 23 5 16 1 18 2 5 6 -26 6 -22 31 5 36 20 4 20 4 -4
6 -22 1 -28 -5 -37 -38z"/>
<path d="M818 1852 c10 -7 9 -17 -2 -50 -8 -23 -11 -42 -7 -42 5 0 14 20 21
44 7 26 19 47 29 49 9 3 0 5 -19 6 -21 0 -30 -2 -22 -7z"/>
<path d="M961 1853 c15 -4 15 -9 3 -49 -7 -24 -10 -44 -6 -44 5 0 13 20 20 44
7 28 18 46 29 49 10 3 0 5 -22 5 -22 0 -33 -2 -24 -5z"/>
<path d="M1110 1836 c-15 -39 -23 -76 -17 -76 7 0 38 92 32 98 -2 3 -9 -7 -15
-22z"/>
<path d="M1229 1818 c-6 -24 -14 -47 -17 -53 -3 -6 -1 -6 4 -2 5 5 14 23 20
40 10 28 13 30 19 12 22 -64 38 -67 53 -9 16 58 10 69 -7 14 -14 -47 -26 -45
-35 5 -9 47 -23 44 -37 -7z"/>
<path d="M1426 1838 c-19 -27 -20 -50 -4 -66 17 -17 42 -15 61 6 23 25 21 32
-5 32 -17 0 -19 -3 -9 -9 17 -11 6 -31 -18 -31 -47 0 -23 75 27 83 25 4 25 4
-5 6 -23 1 -36 -5 -47 -21z"/>
<path d="M1717 1852 c10 -6 10 -17 2 -46 -6 -21 -9 -40 -6 -42 2 -3 10 16 17
40 7 26 19 47 29 49 9 3 0 5 -19 6 -20 0 -30 -3 -23 -7z"/>
<path d="M1856 1813 c-17 -49 -14 -75 3 -29 14 36 56 37 49 1 -9 -43 9 -27 21
19 13 53 13 70 1 39 -13 -31 -65 -33 -55 -3 13 42 -4 18 -19 -27z"/>
<path d="M2050 1835 c-5 -14 -13 -37 -16 -50 -6 -22 -3 -25 22 -24 22 1 24 3
8 6 -29 5 -20 43 10 44 17 1 17 2 4 6 -26 6 -22 31 5 36 l22 4 -23 2 c-16 1
-25 -7 -32 -24z"/>
<path d="M2290 1850 c-13 -8 -12 -13 4 -41 15 -26 16 -33 5 -40 -11 -7 -11 -9
-1 -9 21 0 25 27 7 54 -14 21 -15 27 -4 30 42 13 44 14 24 15 -11 0 -27 -4
-35 -9z"/>
<path d="M2442 1853 c15 -4 15 -8 2 -45 -16 -47 -17 -56 -5 -42 5 5 14 26 20
46 7 20 20 39 29 41 9 3 -1 5 -23 5 -22 0 -32 -2 -23 -5z"/>
<path d="M2582 1816 c-36 -50 -41 -68 -12 -41 11 10 20 24 20 30 0 7 8 19 17
26 15 13 16 11 10 -16 -3 -17 -2 -37 4 -45 6 -10 9 2 9 38 0 28 -4 52 -8 52
-5 0 -23 -20 -40 -44z"/>
<path d="M2751 1838 c-13 -36 -22 -78 -17 -78 3 0 10 19 17 43 l12 42 11 -39
c6 -22 16 -41 22 -43 12 -4 48 86 39 95 -5 6 -25 -44 -25 -64 0 -31 -20 -11
-26 26 -7 45 -20 52 -33 18z"/>
<path d="M2938 1809 l-17 -50 36 3 c25 2 42 11 56 29 24 33 16 70 -16 68 -17
-1 -18 -2 -4 -6 38 -10 9 -83 -34 -83 -16 0 -18 5 -13 28 4 15 11 35 16 45 5
9 5 17 0 17 -4 0 -15 -23 -24 -51z"/>
<path d="M3158 1843 c-25 -31 -60 -83 -54 -83 3 0 20 19 37 43 l31 42 -2 -30
c-3 -42 -1 -55 8 -55 4 0 7 23 7 50 0 54 -4 59 -27 33z"/>
<path d="M3298 1810 c-9 -27 -13 -50 -8 -50 4 0 10 9 13 20 7 25 24 26 32 1 3
-11 12 -22 20 -25 20 -7 19 4 -2 19 -17 13 -17 14 0 32 22 25 22 53 0 53 -15
0 -15 -2 -4 -9 19 -12 6 -41 -19 -41 -23 0 -24 4 -10 31 6 10 7 19 2 19 -4 0
-15 -22 -24 -50z"/>
<path d="M3482 1821 c-18 -57 -16 -63 20 -59 39 4 73 46 63 77 -5 16 -15 21
-39 21 -29 0 -34 -4 -44 -39z m68 1 c0 -34 -16 -52 -48 -52 -18 0 -23 4 -18
16 3 9 9 27 12 40 4 17 13 24 30 24 20 0 24 -5 24 -28z"/>
<path d="M470 1766 c0 -2 7 -7 16 -10 8 -3 12 -2 9 4 -6 10 -25 14 -25 6z"/>
<path d="M2265 1760 c3 -5 8 -10 11 -10 2 0 4 5 4 10 0 6 -5 10 -11 10 -5 0
-7 -4 -4 -10z"/>
<path d="M700 1567 c96 -5 429 -21 739 -35 l565 -27 355 17 c196 10 520 26
721 37 l365 18 -1460 0 c-1028 0 -1408 -3 -1285 -10z"/>
<path d="M384 1335 c-15 -23 -15 -27 -1 -48 9 -13 29 -30 46 -37 60 -24 47
-85 -16 -78 -18 2 -33 0 -33 -4 0 -4 17 -8 38 -8 43 0 72 23 72 58 0 21 -37
56 -70 67 -50 16 -26 70 27 62 20 -4 31 -2 28 4 -4 5 -22 9 -40 9 -26 0 -39
-6 -51 -25z"/>
<path d="M541 1334 c-31 -39 -28 -104 5 -143 22 -26 32 -31 67 -30 l42 1 -39
8 c-58 11 -73 40 -67 125 2 17 7 36 13 43 15 18 55 15 67 -5 5 -10 13 -15 17
-11 14 14 -19 38 -51 38 -24 0 -39 -7 -54 -26z"/>
<path d="M677 1353 c-15 -14 -6 -23 12 -12 10 7 26 9 35 6 13 -5 16 -22 16
-97 0 -53 4 -90 10 -90 6 0 10 38 10 95 0 85 2 95 18 95 10 0 23 -5 30 -12 9
-9 12 -8 12 5 0 14 -11 17 -68 17 -38 0 -72 -3 -75 -7z"/>
<path d="M862 1337 c-42 -44 -20 -160 32 -173 13 -3 37 -4 52 -1 26 4 25 4 -7
6 -20 0 -43 9 -52 19 -23 25 -31 101 -15 132 17 31 57 39 75 14 7 -10 16 -15
19 -11 13 13 -19 37 -50 37 -21 0 -40 -8 -54 -23z"/>
<path d="M1008 1348 c8 -8 12 -45 12 -100 l0 -88 55 0 c45 0 55 3 55 17 0 13
-3 14 -12 5 -7 -7 -27 -12 -45 -12 -32 0 -33 1 -33 45 0 43 1 45 29 45 16 0
32 -6 34 -12 3 -7 6 -4 6 7 1 18 -4 20 -34 17 l-35 -4 0 42 0 42 40 -4 c22 -2
40 0 40 4 0 5 -28 8 -62 8 -48 0 -59 -3 -50 -12z"/>
<path d="M1266 1347 c-29 -21 -16 -58 32 -90 35 -24 43 -34 40 -56 -3 -24 -7
-26 -46 -26 -23 0 -42 -3 -42 -7 0 -13 75 -9 94 5 31 23 17 67 -32 100 -32 22
-42 35 -40 51 2 17 10 21 41 21 20 0 37 3 37 8 0 12 -65 8 -84 -6z"/>
<path d="M1387 1353 c-15 -14 -6 -23 12 -12 10 7 26 9 35 6 13 -5 16 -22 16
-97 0 -53 4 -90 10 -90 6 0 10 38 10 95 0 85 2 95 18 95 10 0 23 -5 30 -12 9
-9 12 -8 12 5 0 14 -11 17 -68 17 -38 0 -72 -3 -75 -7z"/>
<path d="M1561 1351 c-9 -6 -10 -11 -2 -15 6 -4 11 -37 11 -80 0 -83 8 -96 61
-96 54 0 69 26 69 117 0 39 -4 75 -10 78 -6 4 -10 -26 -10 -83 0 -96 -3 -102
-55 -102 -30 0 -35 16 -35 105 0 75 -6 90 -29 76z"/>
<path d="M1748 1260 l3 -100 37 0 c78 0 114 49 98 133 -8 44 -44 67 -103 67
l-38 0 3 -100z m92 72 c18 -14 22 -29 23 -71 1 -45 -3 -57 -23 -73 -13 -10
-33 -18 -44 -16 -19 3 -21 11 -24 77 -2 41 -1 80 2 88 7 18 40 16 66 -5z"/>
<path d="M1938 1260 l3 -100 55 0 c45 0 54 3 53 18 0 10 -3 12 -6 5 -2 -8 -22
-13 -44 -13 l-39 0 0 45 c0 43 1 45 28 45 15 0 32 -4 38 -10 6 -6 10 -3 10 9
0 16 -6 18 -39 13 l-38 -5 3 39 c3 34 6 39 31 42 16 2 35 -3 44 -10 14 -11 15
-11 11 2 -3 10 -21 16 -59 18 l-54 3 3 -101z"/>
<path d="M2088 1349 c7 -8 13 -47 14 -103 l2 -91 5 90 6 90 50 -87 c28 -49 53
-88 58 -88 4 0 6 46 5 103 l-2 102 -3 -84 -4 -85 -47 80 c-36 60 -54 80 -73
82 -19 3 -22 1 -11 -9z"/>
<path d="M2270 1352 c0 -5 14 -7 30 -4 l30 4 0 -96 c0 -57 4 -96 10 -96 6 0
10 38 10 95 0 94 0 95 24 95 13 0 27 -6 29 -12 3 -8 6 -6 6 5 1 15 -9 17 -69
17 -38 0 -70 -4 -70 -8z"/>
<path d="M2536 1344 c-30 -29 -21 -45 59 -109 25 -20 28 -27 19 -42 -8 -13
-23 -18 -52 -17 -23 0 -39 -3 -36 -8 3 -4 23 -8 44 -8 31 0 43 5 56 25 22 34
11 59 -41 90 -25 14 -45 32 -45 39 0 22 28 39 55 34 14 -3 25 -1 25 3 0 15
-68 10 -84 -7z"/>
<path d="M2678 1260 l3 -100 55 0 c30 0 54 3 54 8 0 4 -19 7 -42 7 l-43 0 0
40 c0 34 3 40 23 43 13 2 30 -2 38 -8 12 -10 14 -8 13 16 0 16 -3 23 -6 17 -2
-7 -20 -13 -39 -13 -35 0 -35 1 -32 38 3 34 6 37 37 40 20 2 37 -2 42 -10 7
-10 9 -9 9 5 0 14 -9 17 -57 17 l-58 0 3 -100z"/>
<path d="M2852 1337 c-38 -40 -22 -153 23 -171 9 -3 33 -5 53 -5 l37 2 -40 6
c-33 5 -43 12 -58 41 -20 38 -18 100 3 125 17 20 57 19 69 -2 5 -10 13 -15 17
-11 13 14 -19 38 -50 38 -21 0 -40 -8 -54 -23z"/>
<path d="M2980 1338 c0 -20 1 -21 13 -4 7 10 21 17 31 15 16 -4 18 -16 20 -93
1 -62 5 -91 14 -93 9 -4 12 19 12 91 0 89 2 96 20 96 10 0 24 -8 29 -17 9 -16
10 -16 11 5 0 21 -4 22 -75 22 -71 0 -75 -1 -75 -22z"/>
<path d="M3168 1353 c-7 -17 4 -193 13 -193 12 0 12 187 0 195 -5 3 -11 2 -13
-2z"/>
<path d="M3261 1341 c-30 -30 -36 -94 -14 -138 16 -34 23 -38 60 -41 55 -4 73
21 73 100 0 45 -5 63 -20 78 -25 25 -74 26 -99 1z m89 -17 c13 -33 13 -110 0
-135 -7 -12 -21 -19 -40 -19 -37 0 -50 23 -50 90 0 67 13 90 51 90 22 0 32 -6
39 -26z"/>
<path d="M3428 1259 c4 -117 19 -122 24 -9 l3 75 48 -82 c26 -46 52 -83 57
-83 6 0 9 41 8 103 l-2 102 -5 -85 -6 -85 -48 83 c-69 116 -83 112 -79 -19z"/>
</g>
</svg>
